<svg xmlns="http://www.w3.org/2000/svg" xmlns:xlink="http://www.w3.org/1999/xlink">
   <symbol viewBox="0 0 24 24" id="icon-add" xmlns="http://www.w3.org/2000/svg">
      <path d="M8 12h4m0 0h4m-4 0v4m0-4V8m-8 8.8V7.2c0-1.12 0-1.68.218-2.108.192-.377.497-.682.874-.874C5.52 4 6.08 4 7.2 4h9.6c1.12 0 1.68 0 2.108.218a2 2 0 0 1 .874.874C20 5.52 20 6.08 20 7.2v9.6c0 1.12 0 1.68-.218 2.108a2.001 2.001 0 0 1-.874.874c-.428.218-.986.218-2.104.218H7.197c-1.118 0-1.678 0-2.105-.218a2 2 0 0 1-.874-.874C4 18.48 4 17.92 4 16.8Z" stroke-linecap="round" stroke-linejoin="round" />
   </symbol>
   <symbol viewBox="0 0 24 24" fill="none" id="icon-add-file" xmlns="http://www.w3.org/2000/svg">
      <path d="M13.5 3H8a3 3 0 0 0-3 3v12a3 3 0 0 0 3 3h3m2.5-18L19 8.625M13.5 3v4.625a1 1 0 0 0 1 1H19m0 0v3.188M17 15v3m0 3v-3m0 0h-3m3 0h3"  stroke-linecap="round" stroke-linejoin="round" />
   </symbol>
   <symbol viewBox="0 0 1024 1024" class="bicon" id="icon-arrow" xmlns="http://www.w3.org/2000/svg">
      <path d="M478.312 644.16c24.38 26.901 64.507 26.538 88.507-.89l270.57-309.222c7.758-8.867 6.86-22.344-2.008-30.103-8.866-7.759-22.344-6.86-30.103 2.007L534.71 615.173c-7.202 8.231-17.541 8.325-24.782.335L229.14 305.674c-7.912-8.73-21.403-9.394-30.133-1.482s-9.394 21.403-1.482 30.134l280.786 309.833z" />
   </symbol>
</svg>
